<?xml version="1.0" encoding="UTF-8" standalone="no"?>
<!-- Generator: Adobe Illustrator 15.0.2, SVG Export Plug-In  -->

<svg
   xmlns:dc="http://purl.org/dc/elements/1.1/"
   xmlns:cc="http://creativecommons.org/ns#"
   xmlns:rdf="http://www.w3.org/1999/02/22-rdf-syntax-ns#"
   xmlns:svg="http://www.w3.org/2000/svg"
   xmlns="http://www.w3.org/2000/svg"
   xmlns:sodipodi="http://sodipodi.sourceforge.net/DTD/sodipodi-0.dtd"
   xmlns:inkscape="http://www.inkscape.org/namespaces/inkscape"
   version="1.1"
   x="0px"
   y="0px"
   width="200px"
   height="61px"
   viewBox="0 0 200 61"
   overflow="visible"
   enable-background="new 0 0 200 61"
   xml:space="preserve"
   id="svg79"
   sodipodi:docname="Redali-Logo.svg"
   inkscape:version="0.92.3 (2405546, 2018-03-11)"><metadata
   id="metadata83"><rdf:RDF><cc:Work
       rdf:about=""><dc:format>image/svg+xml</dc:format><dc:type
         rdf:resource="http://purl.org/dc/dcmitype/StillImage" /></cc:Work></rdf:RDF></metadata><sodipodi:namedview
   pagecolor="#ffffff"
   bordercolor="#666666"
   borderopacity="1"
   objecttolerance="10"
   gridtolerance="10"
   guidetolerance="10"
   inkscape:pageopacity="0"
   inkscape:pageshadow="2"
   inkscape:window-width="2602"
   inkscape:window-height="1498"
   id="namedview81"
   showgrid="false"
   inkscape:zoom="2.87"
   inkscape:cx="100.69686"
   inkscape:cy="30.5"
   inkscape:window-x="178"
   inkscape:window-y="270"
   inkscape:window-maximized="0"
   inkscape:current-layer="svg79" />
<defs
   id="defs75">
	<symbol
   id="Redali_Logo"
   viewBox="-100 -30.599 200 61.198">
		<g
   id="g44">
			<g
   id="g34">
				<path
   d="M-38.503,1.387v29.212h14.402c3.581,0,6.049-0.621,7.405-1.862c1.354-1.242,2.033-3.488,2.033-6.741      c0-2.954-0.339-4.973-1.017-6.057s-2.065-1.834-4.163-2.247V13.5c3.239-0.2,4.858-2.091,4.858-5.671V1.387h-5.542v5.329      c0,3.01-1.484,4.515-4.451,4.515h-7.982V1.387H-38.503z M-32.96,15.897H-25c1.897,0,3.157,0.338,3.777,1.016      c0.621,0.678,0.932,2.037,0.932,4.077c0,2.083-0.268,3.427-0.803,4.035c-0.535,0.605-1.708,0.909-3.52,0.909h-8.346V15.897z"
   id="path2" />
				<path
   d="M-4.589,25.934V18.4H9.107v-4.087H-4.589V6.052H9.985V1.387h-20.116v29.212H9.857v-4.666H-4.589z"
   id="path4" />
				<path
   d="M13.94,1.387v29.212h14.359c4.081,0,6.937-0.892,8.572-2.675c1.633-1.784,2.45-4.909,2.45-9.374      c0-7.291-0.656-11.973-1.968-14.05c-1.312-2.076-4.273-3.114-8.881-3.114H13.94z M19.483,6.052h7.897      c2.653,0,4.368,0.609,5.146,1.83c0.777,1.22,1.166,3.913,1.166,8.079c0,4.309-0.349,7.048-1.048,8.218      c-0.699,1.169-2.339,1.754-4.922,1.754h-8.238V6.052z"
   id="path6" />
				<path
   d="M60.867,6.993H48.262l-1.818-5.606H40.58l9.716,29.212h8.324l9.867-29.212h-5.758L60.867,6.993z M59.583,11.081      l-5.05,15.216l-4.965-15.216H59.583z"
   id="path8" />
				<path
   d="M77.256,30.599V6.352h13.696V1.387h-19.24v29.212H77.256z"
   id="path10" />
				<path
   d="M100,30.599V1.387h-5.544v29.212H100z"
   id="path12" />
				<path
   fill="#999999"
   d="M-28.642-19.224h2.065l0.015-0.768c0-3.019-1.977-4.529-5.93-4.529c-2.538,0-4.215,0.478-5.031,1.431      c-0.816,0.954-1.224,2.921-1.224,5.901c0,2.794,0.415,4.689,1.246,5.688c0.831,0.998,2.412,1.497,4.743,1.497      c2.291,0,3.855-0.337,4.691-1.01c0.835-0.673,1.254-1.94,1.254-3.799h-2.065v0.369c0,1.091-0.271,1.819-0.812,2.184      c-0.541,0.364-1.618,0.546-3.23,0.546c-1.555,0-2.552-0.344-2.995-1.033c-0.442-0.688-0.664-2.233-0.664-4.632      c0-2.341,0.253-3.831,0.76-4.47c0.507-0.64,1.689-0.958,3.548-0.958c1.573,0,2.571,0.208,2.995,0.626      C-28.854-21.765-28.642-20.779-28.642-19.224z"
   id="path14" />
				<path
   fill="#999999"
   d="M-17.375-10.005c2.606,0,4.298-0.453,5.075-1.357s1.166-2.871,1.166-5.901      c0-3.029-0.389-4.997-1.166-5.901s-2.468-1.357-5.075-1.357c-2.596,0-4.283,0.452-5.06,1.357      c-0.777,0.905-1.166,2.873-1.166,5.901c0,3.03,0.388,4.996,1.166,5.901C-21.658-10.458-19.971-10.005-17.375-10.005z       M-17.375-11.715c-1.829,0-2.962-0.297-3.4-0.893c-0.438-0.596-0.657-2.146-0.657-4.655c0-2.507,0.219-4.059,0.657-4.654      c0.438-0.595,1.571-0.892,3.4-0.892c1.839,0,2.978,0.297,3.416,0.892c0.437,0.595,0.656,2.146,0.656,4.654      c0,2.509-0.219,4.059-0.656,4.655C-14.397-12.013-15.536-11.715-17.375-11.715z"
   id="path16" />
				<path
   fill="#999999"
   d="M-7.435-10.21h1.992l-0.06-1.919l0.06-0.044c0.629,1.445,2.193,2.168,4.691,2.168      c2.015,0,3.379-0.354,4.093-1.062c0.713-0.708,1.07-2.065,1.07-4.071v-9.176H2.346v9v0.53c0,1.21-0.232,2.024-0.693,2.442      c-0.463,0.418-1.353,0.627-2.67,0.627c-2.901,0-4.352-1.373-4.352-4.117v-8.482h-2.065V-10.21z"
   id="path18" />
				<path
   fill="#999999"
   d="M19.559-13.899h-2.066c0,0.983-0.199,1.593-0.597,1.828c-0.398,0.236-1.424,0.355-3.076,0.355      c-1.535,0-2.508-0.126-2.921-0.377c-0.413-0.25-0.62-0.854-0.62-1.807c0-1.447,0.694-2.204,2.08-2.272l1.667-0.088l2.11-0.104      c2.557-0.128,3.835-1.466,3.835-4.013c0-1.583-0.423-2.669-1.268-3.26c-0.847-0.59-2.396-0.886-4.647-0.886      c-2.312,0-3.902,0.281-4.772,0.842c-0.87,0.561-1.307,1.588-1.307,3.083l0.016,0.767h2.138l0.016-0.663      c0-0.925,0.236-1.542,0.708-1.852c0.472-0.309,1.402-0.464,2.788-0.464c1.702,0,2.821,0.162,3.357,0.486      c0.536,0.325,0.804,1.003,0.804,2.036c0,1.484-0.674,2.227-2.021,2.227c-3.137,0-5.2,0.266-6.189,0.797      C8.604-16.731,8.11-15.63,8.11-13.958c0,1.583,0.391,2.637,1.173,3.163c0.782,0.526,2.338,0.79,4.668,0.79      c3.737,0,5.606-1.126,5.606-3.378V-13.899z"
   id="path20" />
				<path
   fill="#999999"
   d="M34.744-10.21v-14.104h-2.066l0.147,1.844l-0.045,0.044c-0.719-1.396-2.253-2.095-4.603-2.095      c-3.294,0-4.94,1.643-4.94,4.928v9.383h2.064v-9.383c0-1.279,0.212-2.134,0.634-2.566c0.423-0.433,1.254-0.649,2.494-0.649      c1.623,0,2.734,0.322,3.341,0.966c0.604,0.644,0.908,1.826,0.908,3.547v8.085H34.744z"
   id="path22" />
				<path
   fill="#999999"
   d="M40.189-5.93v-18.385h-2.065V-5.93H40.189z"
   id="path24" />
				<path
   fill="#999999"
   d="M51.964-10.21v-1.712h-5.429v-8.63c0-1.505,0.669-2.256,2.007-2.256c1.328,0,1.991,0.673,1.991,2.021      l0.016,0.694l0.03,0.781h1.917l0.015-1.047c0-2.773-1.318-4.161-3.954-4.161c-2.725,0-4.087,1.156-4.087,3.468v0.501v8.63      h-1.947v1.712h1.947v4.281h2.065v-4.281H51.964z"
   id="path26" />
				<path
   fill="#999999"
   d="M56.874-5.93v-2.316h-2.065v2.316H56.874z M56.874-10.21v-14.104h-2.065v14.104H56.874z"
   id="path28" />
				<path
   fill="#999999"
   d="M60.972-10.21h1.991l-0.059-1.919l0.059-0.044c0.63,1.445,2.193,2.168,4.691,2.168      c2.016,0,3.381-0.354,4.093-1.062c0.714-0.708,1.071-2.065,1.071-4.071v-9.176h-2.066v9v0.53c0,1.21-0.231,2.024-0.694,2.442      c-0.461,0.418-1.352,0.627-2.669,0.627c-2.902,0-4.353-1.373-4.353-4.117v-8.482h-2.064V-10.21z"
   id="path30" />
				<path
   fill="#999999"
   d="M87.913-10.21v-15.019c0-2.045-0.443-3.453-1.328-4.219c-0.885-0.767-2.508-1.151-4.869-1.151      c-2.104,0-3.54,0.324-4.308,0.973c-0.767,0.65-1.15,1.865-1.15,3.645h1.991c0-1.209,0.225-1.996,0.671-2.36      c0.447-0.363,1.429-0.546,2.943-0.546c1.574,0,2.63,0.236,3.172,0.708c0.539,0.473,0.811,1.397,0.811,2.773v2.833l-0.045,0.015      c-0.531-1.309-2.065-1.963-4.603-1.963c-2.085,0-3.521,0.514-4.308,1.543c-0.787,1.027-1.18,2.902-1.18,5.627      c0,2.822,0.4,4.753,1.201,5.791c0.802,1.037,2.29,1.556,4.464,1.556c2.311,0,3.821-0.708,4.528-2.125l0.044,0.016l-0.103,1.903      H87.913z M81.761-11.715c-1.623,0-2.676-0.343-3.157-1.026c-0.481-0.684-0.723-2.181-0.723-4.491      c0-2.332,0.242-3.844,0.723-4.537c0.481-0.694,1.534-1.04,3.157-1.04c1.642,0,2.724,0.38,3.245,1.143s0.782,2.349,0.782,4.758      c0,2.123-0.261,3.52-0.782,4.189C84.485-12.051,83.403-11.715,81.761-11.715z"
   id="path32" />
			</g>
			<g
   id="g42">
				<path
   fill="#999999"
   d="M91.57-23.577h1.161v-1.392H91.57V-23.577z M94.056-23.577h5.807v-1.392h-5.807V-23.577z"
   id="path36" />
				<path
   fill="#999999"
   d="M94.056-22.011v1.379l0.978-0.055l0.006,0.031c-0.701,0.271-1.051,0.878-1.051,1.822      c0,1.373,0.64,2.059,1.919,2.059h3.954v-1.392h-3.499h-0.219l-0.407-0.03c-0.433-0.065-0.649-0.404-0.649-1.021      c0-0.935,0.443-1.403,1.33-1.403h3.444v-1.391H94.056z"
   id="path38" />
				<path
   fill="#999999"
   d="M97.645-11.516v1.384h0.201l0.88-0.084c0.802-0.169,1.203-1,1.203-2.491c0-1.093-0.198-1.82-0.593-2.181      c-0.395-0.36-1.19-0.54-2.384-0.54c-1.167,0-1.952,0.18-2.357,0.54c-0.405,0.36-0.607,1.062-0.607,2.103      c0,1.004,0.146,1.684,0.439,2.041c0.294,0.356,0.852,0.535,1.674,0.535v-1.38c-0.677,0-1.014-0.39-1.014-1.171      c0-0.555,0.106-0.903,0.32-1.045c0.216-0.142,0.742-0.213,1.581-0.213c0.81,0,1.319,0.079,1.527,0.234      c0.209,0.156,0.313,0.537,0.313,1.145c0,0.479-0.072,0.785-0.216,0.921C98.471-11.584,98.147-11.516,97.645-11.516z"
   id="path40" />
			</g>
		</g>
		<g
   id="g72">
			<path
   fill="#B70050"
   d="M-100,1.836v-12.226l10.587,6.112L-100,1.836z"
   id="path46" />
			<path
   fill="#B70050"
   d="M-99.377,2.915l10.587-6.112V9.026L-99.377,2.915z"
   id="path48" />
			<path
   fill="#B70050"
   d="M-100,16.216V3.992l10.587,6.112L-100,16.216z"
   id="path50" />
			<path
   fill="#B70050"
   d="M-87.544,23.408V11.184l10.586,6.11L-87.544,23.408z"
   id="path52" />
			<path
   fill="#B70050"
   d="M-86.922,24.485l10.587-6.112v12.226L-86.922,24.485z"
   id="path54" />
			<path
   fill="#B70050"
   d="M-99.377,17.294l10.587-6.11v12.224L-99.377,17.294z"
   id="path56" />
			<path
   fill="#7F3F98"
   d="M-62.634,9.026V-3.197l10.588,6.112L-62.634,9.026z"
   id="path58" />
			<path
   fill="#7F3F98"
   d="M-62.011-4.277l10.589-6.112V1.836L-62.011-4.277z"
   id="path60" />
			<path
   fill="#7F3F98"
   d="M-75.089,30.599V18.374l10.587,6.112L-75.089,30.599z"
   id="path62" />
			<path
   fill="#7F3F98"
   d="M-62.634,23.408V11.184l10.588,6.11L-62.634,23.408z"
   id="path64" />
			<path
   fill="#7F3F98"
   d="M-62.011,10.104l10.589-6.112v12.224L-62.011,10.104z"
   id="path66" />
			<path
   fill="#7F3F98"
   d="M-74.466,17.294l10.587-6.11v12.224L-74.466,17.294z"
   id="path68" />
			<path
   fill="#009FC2"
   d="M-75.089-12.546V-24.77l10.587,6.112L-75.089-12.546z M-86.922-18.658l10.587-6.112v12.224     L-86.922-18.658z M-62.634-5.355v-12.226l10.588,6.112L-62.634-5.355z M-74.466-11.469l10.587-6.112v12.226L-74.466-11.469z      M-87.544-5.355v-12.226l10.586,6.112L-87.544-5.355z M-99.377-11.469l10.587-6.112v12.226L-99.377-11.469z"
   id="path70" />
		</g>
	</symbol>

		
		
	
			
			
		
				
				
				
				
				
				
				
				
				
				
				
				
				
				
				
				
			</defs>
<g
   id="g4813"><g
     id="g4778"><g
       id="g4758"><path
         id="path4593"
         d="M 61.497,29.113 V -0.099 h 14.402 c 3.581,0 6.049,0.621 7.405,1.862 1.354,1.242 2.033,3.488 2.033,6.741 0,2.954 -0.339,4.973 -1.017,6.057 -0.678,1.084 -2.065,1.834 -4.163,2.247 V 17 c 3.239,0.2 4.858,2.091 4.858,5.671 v 6.442 h -5.542 v -5.329 c 0,-3.01 -1.484,-4.515 -4.451,-4.515 H 67.04 v 9.844 z M 67.04,14.603 H 75 c 1.897,0 3.157,-0.338 3.777,-1.016 0.621,-0.678 0.932,-2.037 0.932,-4.077 0,-2.083 -0.268,-3.427 -0.803,-4.035 C 78.371,4.87 77.198,4.566 75.386,4.566 H 67.04 Z"
         inkscape:connector-curvature="0" /><path
         id="path4595"
         d="M 95.411,4.566 V 12.1 h 13.696 v 4.087 H 95.411 v 8.261 h 14.574 v 4.665 H 89.869 V -0.099 h 19.988 V 4.567 H 95.411 Z"
         inkscape:connector-curvature="0" /><path
         id="path4597"
         d="M 113.94,29.113 V -0.099 h 14.359 c 4.081,0 6.937,0.892 8.572,2.675 1.633,1.784 2.45,4.909 2.45,9.374 0,7.291 -0.656,11.973 -1.968,14.05 -1.312,2.076 -4.273,3.114 -8.881,3.114 H 113.94 Z m 5.543,-4.665 h 7.897 c 2.653,0 4.368,-0.609 5.146,-1.83 0.777,-1.22 1.166,-3.913 1.166,-8.079 0,-4.309 -0.349,-7.048 -1.048,-8.218 -0.699,-1.169 -2.339,-1.754 -4.922,-1.754 h -8.238 v 19.881 z"
         inkscape:connector-curvature="0" /><path
         id="path4599"
         d="m 160.867,23.507 h -12.605 l -1.818,5.606 h -5.864 l 9.716,-29.212 h 8.324 l 9.867,29.212 h -5.758 z m -1.284,-4.088 -5.05,-15.216 -4.965,15.216 z"
         inkscape:connector-curvature="0" /><path
         id="path4601"
         d="m 177.256,-0.099 v 24.247 h 13.696 v 4.965 h -19.24 V -0.099 Z"
         inkscape:connector-curvature="0" /><path
         id="path4603"
         d="m 200,-0.099 v 29.212 h -5.544 V -0.099 Z"
         inkscape:connector-curvature="0" /></g><g
       id="g4750"
       transform="matrix(1.0935023,0,0,1,-5.7272957,0)"><path
         id="path4605"
         d="m 71.358,49.724 h 2.065 l 0.015,0.768 c 0,3.019 -1.977,4.529 -5.93,4.529 -2.538,0 -4.215,-0.478 -5.031,-1.431 -0.816,-0.954 -1.224,-2.921 -1.224,-5.901 0,-2.794 0.415,-4.689 1.246,-5.688 0.831,-0.998 2.412,-1.497 4.743,-1.497 2.291,0 3.855,0.337 4.691,1.01 0.835,0.673 1.254,1.94 1.254,3.799 h -2.065 v -0.369 c 0,-1.091 -0.271,-1.819 -0.812,-2.184 -0.541,-0.364 -1.618,-0.546 -3.23,-0.546 -1.555,0 -2.552,0.344 -2.995,1.033 -0.442,0.688 -0.664,2.233 -0.664,4.632 0,2.341 0.253,3.831 0.76,4.47 0.507,0.64 1.689,0.958 3.548,0.958 1.573,0 2.571,-0.208 2.995,-0.626 0.422,-0.416 0.634,-1.402 0.634,-2.957 z"
         inkscape:connector-curvature="0"
         style="fill:#999999" /><path
         id="path4607"
         d="m 82.625,40.505 c 2.606,0 4.298,0.453 5.075,1.357 0.777,0.904 1.166,2.871 1.166,5.901 0,3.029 -0.389,4.997 -1.166,5.901 -0.777,0.904 -2.468,1.357 -5.075,1.357 -2.596,0 -4.283,-0.452 -5.06,-1.357 -0.777,-0.905 -1.166,-2.873 -1.166,-5.901 0,-3.03 0.388,-4.996 1.166,-5.901 0.777,-0.904 2.464,-1.357 5.06,-1.357 z m 0,1.71 c -1.829,0 -2.962,0.297 -3.4,0.893 -0.438,0.596 -0.657,2.146 -0.657,4.655 0,2.507 0.219,4.059 0.657,4.654 0.438,0.595 1.571,0.892 3.4,0.892 1.839,0 2.978,-0.297 3.416,-0.892 0.437,-0.595 0.656,-2.146 0.656,-4.654 0,-2.509 -0.219,-4.059 -0.656,-4.655 -0.438,-0.595 -1.577,-0.893 -3.416,-0.893 z"
         inkscape:connector-curvature="0"
         style="fill:#999999" /><path
         id="path4609"
         d="m 92.565,40.71 h 1.992 l -0.06,1.919 0.06,0.044 c 0.629,-1.445 2.193,-2.168 4.691,-2.168 2.015,0 3.379,0.354 4.093,1.062 0.713,0.708 1.07,2.065 1.07,4.071 v 9.176 h -2.065 v -9 -0.53 c 0,-1.21 -0.232,-2.024 -0.693,-2.442 -0.463,-0.418 -1.353,-0.627 -2.67,-0.627 -2.901,0 -4.352,1.373 -4.352,4.117 v 8.482 H 92.566 V 40.71 Z"
         inkscape:connector-curvature="0"
         style="fill:#999999" /><path
         id="path4611"
         d="m 119.559,44.399 h -2.066 c 0,-0.983 -0.199,-1.593 -0.597,-1.828 -0.398,-0.236 -1.424,-0.355 -3.076,-0.355 -1.535,0 -2.508,0.126 -2.921,0.377 -0.413,0.25 -0.62,0.854 -0.62,1.807 0,1.447 0.694,2.204 2.08,2.272 l 1.667,0.088 2.11,0.104 c 2.557,0.128 3.835,1.466 3.835,4.013 0,1.583 -0.423,2.669 -1.268,3.26 -0.847,0.59 -2.396,0.886 -4.647,0.886 -2.312,0 -3.902,-0.281 -4.772,-0.842 -0.87,-0.561 -1.307,-1.588 -1.307,-3.083 l 0.016,-0.767 h 2.138 l 0.016,0.663 c 0,0.925 0.236,1.542 0.708,1.852 0.472,0.309 1.402,0.464 2.788,0.464 1.702,0 2.821,-0.162 3.357,-0.486 0.536,-0.325 0.804,-1.003 0.804,-2.036 0,-1.484 -0.674,-2.227 -2.021,-2.227 -3.137,0 -5.2,-0.266 -6.189,-0.797 -0.99,-0.533 -1.484,-1.634 -1.484,-3.306 0,-1.583 0.391,-2.637 1.173,-3.163 0.782,-0.526 2.338,-0.79 4.668,-0.79 3.737,0 5.606,1.126 5.606,3.378 v 0.516 z"
         inkscape:connector-curvature="0"
         style="fill:#999999" /><path
         id="path4613"
         d="m 134.744,40.71 v 14.104 h -2.066 l 0.147,-1.844 -0.045,-0.044 c -0.719,1.396 -2.253,2.095 -4.603,2.095 -3.294,0 -4.94,-1.643 -4.94,-4.928 V 40.71 h 2.064 v 9.383 c 0,1.279 0.212,2.134 0.634,2.566 0.423,0.433 1.254,0.649 2.494,0.649 1.623,0 2.734,-0.322 3.341,-0.966 0.604,-0.644 0.908,-1.826 0.908,-3.547 V 40.71 Z"
         inkscape:connector-curvature="0"
         style="fill:#999999" /><path
         id="path4615"
         d="m 140.189,36.43 v 18.385 h -2.065 V 36.43 Z"
         inkscape:connector-curvature="0"
         style="fill:#999999" /><path
         id="path4617"
         d="m 151.964,40.71 v 1.712 h -5.429 v 8.63 c 0,1.505 0.669,2.256 2.007,2.256 1.328,0 1.991,-0.673 1.991,-2.021 l 0.016,-0.694 0.03,-0.781 h 1.917 l 0.015,1.047 c 0,2.773 -1.318,4.161 -3.954,4.161 -2.725,0 -4.087,-1.156 -4.087,-3.468 v -0.501 -8.63 h -1.947 v -1.712 h 1.947 v -4.281 h 2.065 v 4.281 h 5.429 z"
         inkscape:connector-curvature="0"
         style="fill:#999999" /><path
         id="path4619"
         d="m 156.874,36.43 v 2.316 h -2.065 V 36.43 Z m 0,4.28 v 14.104 h -2.065 V 40.71 Z"
         inkscape:connector-curvature="0"
         style="fill:#999999" /><path
         id="path4621"
         d="m 160.972,40.71 h 1.991 l -0.059,1.919 0.059,0.044 c 0.63,-1.445 2.193,-2.168 4.691,-2.168 2.016,0 3.381,0.354 4.093,1.062 0.714,0.708 1.071,2.065 1.071,4.071 v 9.176 h -2.066 v -9 -0.53 c 0,-1.21 -0.231,-2.024 -0.694,-2.442 -0.461,-0.418 -1.352,-0.627 -2.669,-0.627 -2.902,0 -4.353,1.373 -4.353,4.117 v 8.482 h -2.064 z"
         inkscape:connector-curvature="0"
         style="fill:#999999" /><path
         id="path4623"
         d="m 187.913,40.71 v 15.019 c 0,2.045 -0.443,3.453 -1.328,4.219 -0.885,0.767 -2.508,1.151 -4.869,1.151 -2.104,0 -3.54,-0.324 -4.308,-0.973 -0.767,-0.65 -1.15,-1.865 -1.15,-3.645 h 1.991 c 0,1.209 0.225,1.996 0.671,2.36 0.447,0.363 1.429,0.546 2.943,0.546 1.574,0 2.63,-0.236 3.172,-0.708 0.539,-0.473 0.811,-1.397 0.811,-2.773 v -2.833 l -0.045,-0.015 c -0.531,1.309 -2.065,1.963 -4.603,1.963 -2.085,0 -3.521,-0.514 -4.308,-1.543 -0.787,-1.027 -1.18,-2.902 -1.18,-5.627 0,-2.822 0.4,-4.753 1.201,-5.791 0.802,-1.037 2.29,-1.556 4.464,-1.556 2.311,0 3.821,0.708 4.528,2.125 l 0.044,-0.016 -0.103,-1.903 z m -6.152,1.505 c -1.623,0 -2.676,0.343 -3.157,1.026 -0.481,0.684 -0.723,2.181 -0.723,4.491 0,2.332 0.242,3.844 0.723,4.537 0.481,0.694 1.534,1.04 3.157,1.04 1.642,0 2.724,-0.38 3.245,-1.143 0.521,-0.763 0.782,-2.349 0.782,-4.758 0,-2.123 -0.261,-3.52 -0.782,-4.189 -0.521,-0.668 -1.603,-1.004 -3.245,-1.004 z"
         inkscape:connector-curvature="0"
         style="fill:#999999" /></g></g><g
     transform="matrix(1,0,0,-1,100,30.5)"
     id="g4663">
			<path
   id="path4637"
   d="M -100,1.836 V -10.39 l 10.587,6.112 z"
   inkscape:connector-curvature="0"
   style="fill:#b70050" />
			<path
   id="path4639"
   d="M -99.377,2.915 -88.79,-3.197 V 9.026 Z"
   inkscape:connector-curvature="0"
   style="fill:#b70050" />
			<path
   id="path4641"
   d="M -100,16.216 V 3.992 l 10.587,6.112 z"
   inkscape:connector-curvature="0"
   style="fill:#b70050" />
			<path
   id="path4643"
   d="M -87.544,23.408 V 11.184 l 10.586,6.11 z"
   inkscape:connector-curvature="0"
   style="fill:#b70050" />
			<path
   id="path4645"
   d="m -86.922,24.485 10.587,-6.112 v 12.226 z"
   inkscape:connector-curvature="0"
   style="fill:#b70050" />
			<path
   id="path4647"
   d="m -99.377,17.294 10.587,-6.11 v 12.224 z"
   inkscape:connector-curvature="0"
   style="fill:#b70050" />
			<path
   id="path4649"
   d="M -62.634,9.026 V -3.197 l 10.588,6.112 z"
   inkscape:connector-curvature="0"
   style="fill:#7f3f98" />
			<path
   id="path4651"
   d="m -62.011,-4.277 10.589,-6.112 V 1.836 Z"
   inkscape:connector-curvature="0"
   style="fill:#7f3f98" />
			<path
   id="path4653"
   d="M -75.089,30.599 V 18.374 l 10.587,6.112 z"
   inkscape:connector-curvature="0"
   style="fill:#7f3f98" />
			<path
   id="path4655"
   d="M -62.634,23.408 V 11.184 l 10.588,6.11 z"
   inkscape:connector-curvature="0"
   style="fill:#7f3f98" />
			<path
   id="path4657"
   d="M -62.011,10.104 -51.422,3.992 V 16.216 Z"
   inkscape:connector-curvature="0"
   style="fill:#7f3f98" />
			<path
   id="path4659"
   d="m -74.466,17.294 10.587,-6.11 v 12.224 z"
   inkscape:connector-curvature="0"
   style="fill:#7f3f98" />
			<path
   id="path4661"
   d="M -75.089,-12.546 V -24.77 l 10.587,6.112 z m -11.833,-6.112 10.587,-6.112 v 12.224 z m 24.288,13.303 v -12.226 l 10.588,6.112 z m -11.832,-6.114 10.587,-6.112 v 12.226 z m -13.078,6.114 v -12.226 l 10.586,6.112 z m -11.833,-6.114 10.587,-6.112 v 12.226 z"
   inkscape:connector-curvature="0"
   style="fill:#009fc2" />
		</g></g>
</svg>